# xmcd
#
# Track frame offsets:
#	150
#	22187
#	57235
#	103565
#
# Disc length: 1655 seconds
#
# Revision: 0
# Processed by: cddbd v1.5.1PL0 Copyright (c) Steve Scherf et al.
# Submitted via: dBpowerAMP V4.0
#
DISCID=2e067504
DTITLE=Gonzalo Martinez - La cumbia triste
DYEAR=1997
DGENRE=Ethnic
TTITLE0=La cumbia triste
TTITLE1=La cumbia disco (remix de rodrigo peña)
TTITLE2=la cumbia twisted (remix del señor coconut)
TTITLE3=Navidad
EXTD=
EXTT0=
EXTT1=
EXTT2=
EXTT3=
PLAYORDER=
